<mxfile host="Electron" agent="Mozilla/5.0 (X11; Linux x86_64) AppleWebKit/537.36 (KHTML, like Gecko) draw.io/27.0.5 Chrome/134.0.6998.205 Electron/35.3.0 Safari/537.36" version="27.0.5">
  <diagram name="Page-1" id="JbWR4Zl9cI-E8CAvTy3u">
    <mxGraphModel dx="2265" dy="892" grid="1" gridSize="10" guides="1" tooltips="1" connect="1" arrows="1" fold="1" page="1" pageScale="1" pageWidth="827" pageHeight="1169" math="0" shadow="0">
      <root>
        <mxCell id="0" />
        <mxCell id="1" parent="0" />
        <mxCell id="uMQOmbd4jPzJpxeKO3bs-2" value="hebwatch project road map" style="rounded=1;whiteSpace=wrap;html=1;" vertex="1" parent="1">
          <mxGeometry x="340" y="330" width="120" height="60" as="geometry" />
        </mxCell>
        <mxCell id="uMQOmbd4jPzJpxeKO3bs-6" value="" style="edgeStyle=orthogonalEdgeStyle;rounded=0;orthogonalLoop=1;jettySize=auto;html=1;exitX=1;exitY=0.5;exitDx=0;exitDy=0;" edge="1" parent="1" source="uMQOmbd4jPzJpxeKO3bs-13" target="uMQOmbd4jPzJpxeKO3bs-5">
          <mxGeometry relative="1" as="geometry">
            <mxPoint x="280" y="500" as="sourcePoint" />
          </mxGeometry>
        </mxCell>
        <mxCell id="uMQOmbd4jPzJpxeKO3bs-14" value="" style="edgeStyle=orthogonalEdgeStyle;rounded=0;orthogonalLoop=1;jettySize=auto;html=1;" edge="1" parent="1" source="uMQOmbd4jPzJpxeKO3bs-3" target="uMQOmbd4jPzJpxeKO3bs-13">
          <mxGeometry relative="1" as="geometry" />
        </mxCell>
        <mxCell id="uMQOmbd4jPzJpxeKO3bs-3" value="integration with&amp;nbsp;&lt;div&gt;https://github.com/yparitcher/libzmanim&lt;/div&gt;" style="rounded=1;whiteSpace=wrap;html=1;" vertex="1" parent="1">
          <mxGeometry x="-130" y="470" width="210" height="60" as="geometry" />
        </mxCell>
        <mxCell id="uMQOmbd4jPzJpxeKO3bs-11" value="" style="edgeStyle=orthogonalEdgeStyle;rounded=0;orthogonalLoop=1;jettySize=auto;html=1;" edge="1" parent="1" source="uMQOmbd4jPzJpxeKO3bs-5" target="uMQOmbd4jPzJpxeKO3bs-10">
          <mxGeometry relative="1" as="geometry" />
        </mxCell>
        <mxCell id="uMQOmbd4jPzJpxeKO3bs-5" value="get all the dates for the week from the current date recevied from RTC and draw them on screen" style="whiteSpace=wrap;html=1;rounded=1;" vertex="1" parent="1">
          <mxGeometry x="300" y="460" width="120" height="80" as="geometry" />
        </mxCell>
        <mxCell id="uMQOmbd4jPzJpxeKO3bs-22" value="" style="edgeStyle=orthogonalEdgeStyle;rounded=0;orthogonalLoop=1;jettySize=auto;html=1;" edge="1" parent="1" source="uMQOmbd4jPzJpxeKO3bs-10" target="uMQOmbd4jPzJpxeKO3bs-21">
          <mxGeometry relative="1" as="geometry" />
        </mxCell>
        <mxCell id="uMQOmbd4jPzJpxeKO3bs-10" value="get all the hebrew zmanim specified in the screen and draw them" style="whiteSpace=wrap;html=1;rounded=1;" vertex="1" parent="1">
          <mxGeometry x="460" y="470" width="120" height="60" as="geometry" />
        </mxCell>
        <mxCell id="uMQOmbd4jPzJpxeKO3bs-13" value="build an interface for the zmanim library with topics that output all the data from this lib including holidays and special events in realtime to the hebwatch module with pub/sub mechanism implemented" style="whiteSpace=wrap;html=1;rounded=1;" vertex="1" parent="1">
          <mxGeometry x="120" y="412.5" width="130" height="175" as="geometry" />
        </mxCell>
        <mxCell id="uMQOmbd4jPzJpxeKO3bs-15" value="keep modules seperate with high cohishion and loose copling" style="rounded=1;whiteSpace=wrap;html=1;" vertex="1" parent="1">
          <mxGeometry x="500" y="80" width="120" height="130" as="geometry" />
        </mxCell>
        <mxCell id="uMQOmbd4jPzJpxeKO3bs-19" value="" style="edgeStyle=orthogonalEdgeStyle;rounded=0;orthogonalLoop=1;jettySize=auto;html=1;" edge="1" parent="1" source="uMQOmbd4jPzJpxeKO3bs-16" target="uMQOmbd4jPzJpxeKO3bs-18">
          <mxGeometry relative="1" as="geometry" />
        </mxCell>
        <mxCell id="uMQOmbd4jPzJpxeKO3bs-16" value="build an interface for hebwatch part - shaa zmanit&amp;nbsp;" style="whiteSpace=wrap;html=1;rounded=1;" vertex="1" parent="1">
          <mxGeometry x="-100" y="687.5" width="120" height="60" as="geometry" />
        </mxCell>
        <mxCell id="uMQOmbd4jPzJpxeKO3bs-18" value="build the module itself exposing the current shaa zmanit, accept as input the local coordinates the current date and time and output the current shaa zmanit take in considuratino support for night and day and timezode calculation and daysavings,&lt;div&gt;support in israel with the abbility to scale to another country in the future&lt;/div&gt;" style="whiteSpace=wrap;html=1;rounded=1;" vertex="1" parent="1">
          <mxGeometry x="110" y="620" width="160" height="195" as="geometry" />
        </mxCell>
        <mxCell id="uMQOmbd4jPzJpxeKO3bs-24" value="" style="edgeStyle=orthogonalEdgeStyle;rounded=0;orthogonalLoop=1;jettySize=auto;html=1;" edge="1" parent="1" source="uMQOmbd4jPzJpxeKO3bs-21" target="uMQOmbd4jPzJpxeKO3bs-23">
          <mxGeometry relative="1" as="geometry" />
        </mxCell>
        <mxCell id="uMQOmbd4jPzJpxeKO3bs-21" value="add abbility to navigate to next and previus weeks with the next week will be short left button and previus week will be short right button" style="whiteSpace=wrap;html=1;rounded=1;" vertex="1" parent="1">
          <mxGeometry x="620" y="430" width="120" height="140" as="geometry" />
        </mxCell>
        <mxCell id="uMQOmbd4jPzJpxeKO3bs-23" value="add abillity to jump to a future date or past date, this feature needs to support both hebrew dates and jul dates based on what the user request, pop up screen with date selection will be triggerd from middile button long press" style="whiteSpace=wrap;html=1;rounded=1;" vertex="1" parent="1">
          <mxGeometry x="800" y="422.5" width="150" height="155" as="geometry" />
        </mxCell>
      </root>
    </mxGraphModel>
  </diagram>
</mxfile>
